<?xml version="1.0" encoding="utf-8"?>
<!-- Generator: Adobe Illustrator 24.0.0, SVG Export Plug-In . SVG Version: 6.00 Build 0)  -->
<svg version="1.1" id="图层_1" xmlns="http://www.w3.org/2000/svg" xmlns:xlink="http://www.w3.org/1999/xlink" x="0px" y="0px"
	 viewBox="0 0 200 200" style="enable-background:new 0 0 200 200;" xml:space="preserve">
<style type="text/css">
	.st0{fill:#FFFFFF;}
</style>
<path class="st0" d="M167.86,87.24c2.83-7.26,2.49-14.86-0.64-21.46c-3.17-6.62-10.54-11.84-18.9-14.2
	c-2.79-5.51-7.17-9.17-12.75-11.01c-6.19-2.04-13.5-1.62-19.73,0.45c-4.68-5.43-10.39-8.45-16.67-9.02
	c-7.13-0.62-14.32,2.21-18.69,6.88c-4.3-2.26-9.39-3.47-14.56-3.23c-6.36,0.3-12.26,2.79-16.82,7.36
	c-4.64,4.66-7.7,11.24-8.94,19.58c-5.53,1.85-9.68,6.05-12.2,11.9c-2.49,5.75-3.32,12.9-2.45,19.95c0.87,7.07,3.34,13.58,7.05,18.13
	c4.22,5.17,9.88,7.56,16.16,6.36c2.09,2.02,4.7,3.43,7.68,4.19c-3.56,6.39-3.32,12.35,0.79,16.99c4.13,4.68,11.84,7.37,21.31,7.88
	c9.28,0.51,19.69-1.13,29.2-4.7c1.66-0.62,3.28-1.3,4.85-2.04l-0.06,0.15c5.21,1.89,8.51,6.45,8.34,11.13
	c-0.08,2.36-1.02,4.64-2.87,6.64c-1.81,1.98-4.45,3.64-7.88,4.88c-2.19-4.04-6.45-6.79-11.35-6.79c-7.09,0-12.86,5.75-12.86,12.86
	c0,7.09,5.75,12.86,12.86,12.86c7.04,0,12.75-5.66,12.86-12.67c9.79-3.34,15.39-9.86,15.65-17.6c0.21-5.96-2.9-11.58-8.03-15.09
	c5.64-3.51,10.52-7.77,14.39-12.77c0.87-1.13,1.68-2.24,2.45-3.36c0.3,0.23,0.64,0.38,1.02,0.49c7.88,2.23,14.84,2.38,20.61,0.6
	c5.41-1.68,9.62-5.02,12.26-9.52C174.57,105.12,173.67,94.64,167.86,87.24z M98.72,176.55c-3.56,0-6.45-2.87-6.45-6.43
	c0-3.56,2.89-6.45,6.45-6.45c3.56,0,6.45,2.87,6.45,6.43C105.17,173.66,102.28,176.55,98.72,176.55z M164.37,109.82
	c-1.83,3.09-4.72,5.41-8.6,6.6c-4.38,1.36-9.86,1.28-16.33-0.47c2.57-4.79,4.07-9.43,4.51-13.92c5.45-1.49,9.47-6.49,9.47-12.41
	c0-7.09-5.75-12.86-12.86-12.86c-7.09,0-12.86,5.75-12.86,12.86c0,6.05,4.17,11.11,9.79,12.5c-0.72,5.7-3.68,11.96-8.96,18.79
	c-5.53,7.15-13.56,12.69-23.1,16.31c-8.68,3.3-18.18,4.79-26.57,4.34c-7.92-0.43-14.07-2.58-16.86-5.73
	c-1.24-1.41-1.79-2.96-1.64-4.79c0.19-2.09,1.26-4.56,3.36-7.36c4.38-0.32,9.22-1.74,14.33-4.21c2.41-1.19,4.64-1.75,6.9-1.92
	c1.77-0.11,3.19-0.02,6.11,0.32c1.96,0.23,2.68,0.3,3.73,0.36c5.13,0.28,9.3-0.92,13.84-4.62c5.9-4.79,6.96-12.52,3.66-22.6
	c0-0.02-0.02-0.08-0.04-0.11c1.6-2.13,2.55-4.79,2.55-7.68c0-7.09-5.75-12.86-12.86-12.86c-7.09,0-12.86,5.75-12.86,12.86
	c0,7.09,5.75,12.86,12.86,12.86c1.74,0,3.38-0.34,4.88-0.96c1.79,6.6,0.92,10.94-2.23,13.5c-3.24,2.64-5.83,3.39-9.43,3.19
	c-0.87-0.06-1.51-0.13-3.32-0.34c-3.32-0.38-5.05-0.51-7.34-0.34c-3.07,0.23-6.07,1-9.22,2.53c-5.98,2.89-11.15,4.02-15.31,3.58
	c-3.53-0.38-6.22-1.87-8-4.3c-3.55-4.81-1.74-12.09,5.85-18.09c1.68,0.81,3.55,1.24,5.51,1.24c7.11,0,12.86-5.75,12.86-12.86
	c0-7.09-5.77-12.86-12.86-12.86c-7.09,0-12.86,5.75-12.86,12.86c0,2.9,0.96,5.6,2.6,7.73c-7.15,6.13-10.41,14.86-8.26,21.8
	c-2.7-0.23-5.13-1.68-7.24-4.26c-2.89-3.53-4.92-8.9-5.64-14.82c-0.72-6-0.04-12,1.96-16.64c2.07-4.83,5.39-7.86,9.86-8.79
	c1.38-0.28,2.4-1.41,2.55-2.81c0.85-8,3.43-13.96,7.37-17.9c3.39-3.39,7.77-5.24,12.56-5.47c9.22-0.43,17.97,5.15,19.35,12.2
	c0,0.01,0,0.02,0,0.02c0.34,1.74,2.03,2.87,3.77,2.52c0.01,0,0.02,0,0.02,0c1.74-0.34,2.87-2.03,2.52-3.77
	c-0.77-4-2.98-7.58-6.07-10.43c3.09-2.89,7.96-4.66,12.79-4.24c3.32,0.28,6.49,1.57,9.39,3.9c3.34,2.68,6.26,6.75,8.56,12.22
	c0.68,1.64,2.57,2.41,4.21,1.72c1.64-0.68,2.41-2.57,1.72-4.21c-0.83-1.96-1.74-3.79-2.72-5.47c4.56-1.17,9.64-1.26,13.81,0.11
	c6.19,2.06,10.26,7.13,11.51,16.22c0.25,1.75,1.85,3,3.62,2.75c1.75-0.25,3-1.85,2.75-3.62c-0.15-0.96-0.3-1.89-0.49-2.79
	c4.83,2.11,8.6,5.45,10.45,9.32c2.62,5.49,2.66,11.83-0.21,17.9c-0.58,1.21-0.36,2.62,0.57,3.58
	C166.88,95.39,167.92,103.75,164.37,109.82z M134.1,89.62c0-3.56,2.89-6.45,6.45-6.45c3.56,0,6.45,2.89,6.45,6.45
	c0,3.56-2.89,6.45-6.45,6.45C137,96.07,134.1,93.2,134.1,89.62z M108.37,83.19c0,3.56-2.89,6.45-6.45,6.45
	c-3.55,0-6.45-2.87-6.45-6.43s2.89-6.45,6.45-6.45C105.49,76.76,108.37,79.62,108.37,83.19z M56.85,83.21
	c0-3.56,2.89-6.45,6.45-6.45c3.56,0,6.45,2.87,6.45,6.43c0,3.56-2.89,6.45-6.45,6.45C59.75,89.64,56.85,86.77,56.85,83.21z"/>
</svg>
