<?xml version="1.0" encoding="utf-8"?>
<!-- Generator: Adobe Illustrator 24.0.0, SVG Export Plug-In . SVG Version: 6.00 Build 0)  -->
<svg version="1.1" id="图层_1" xmlns="http://www.w3.org/2000/svg" xmlns:xlink="http://www.w3.org/1999/xlink" x="0px" y="0px"
	 viewBox="0 0 200 200" style="enable-background:new 0 0 200 200;" xml:space="preserve">
<style type="text/css">
	.st0{fill:#FFFFFF;}
</style>
<g>
	<path class="st0" d="M85.87,71.89l38.01,25.34c0.65,0.45,1.21,1.01,1.66,1.66c2.02,2.94,1.28,6.96-1.66,8.99l-38.01,25.34
		c-1.07,0.72-2.33,1.1-3.62,1.09c-3.5-0.04-6.3-2.91-6.26-6.41V77.21c0.02-2.31,1.28-4.44,3.29-5.57c0.94-0.49,1.98-0.75,3.04-0.76
		C83.57,70.9,84.8,71.25,85.87,71.89z M108.93,102.55L88.66,89v27.11L108.93,102.55z"/>
	<path class="st0" d="M98.23,41.53c33.72,0,61.06,27.34,61.06,61.06s-27.34,61.06-61.06,61.06s-61.06-27.34-61.06-61.06
		C37.19,68.88,64.52,41.55,98.23,41.53 M98.23,29.18c-40.54,0-73.41,32.87-73.41,73.41S57.68,176,98.23,176s73.41-32.87,73.41-73.41
		c0,0,0,0,0,0C171.64,62.05,138.77,29.18,98.23,29.18z"/>
</g>
</svg>
