<?xml version="1.0" encoding="utf-8"?>
<!-- Generator: Adobe Illustrator 24.0.0, SVG Export Plug-In . SVG Version: 6.00 Build 0)  -->
<svg version="1.1" id="图层_1" xmlns="http://www.w3.org/2000/svg" xmlns:xlink="http://www.w3.org/1999/xlink" x="0px" y="0px"
	 viewBox="0 0 200 200" style="enable-background:new 0 0 200 200;" xml:space="preserve">
<style type="text/css">
	.st0{fill:#FFFFFF;}
</style>
<g>
	<path class="st0" d="M157.98,162H24.15c-3.08,0-5.58-2.5-5.58-5.58V44.9c0-3.08,2.5-5.58,5.58-5.58h133.83
		c3.08,0,5.58,2.5,5.58,5.58v24.42l14.28-7.14c1.67-0.89,3.68-0.89,5.35,0c1.71,1.09,2.72,2.99,2.68,5.02v66.91
		c-0.03,1.95-1.04,3.75-2.68,4.8c-1.67,0.89-3.68,0.89-5.35,0l-14.28-7.14v24.65C163.56,159.5,161.06,162,157.98,162z M29.73,150.85
		h122.68v-27.88c0.03-1.95,1.04-3.75,2.68-4.8c1.67-0.89,3.68-0.89,5.35,0l14.28,7.14V76.24l-14.28,7.14
		c-1.67,0.89-3.68,0.89-5.35,0c-1.71-1.09-2.72-2.99-2.68-5.02V50.48H29.73V150.85z"/>
	<path class="st0" d="M79.92,128.54c-0.93-0.01-1.85-0.24-2.68-0.67c-1.78-1-2.88-2.87-2.9-4.91V78.36
		c-0.04-3.08,2.43-5.6,5.51-5.64c1.14-0.01,2.25,0.32,3.19,0.96l33.46,22.3c2.59,1.78,3.24,5.32,1.46,7.91
		c-0.39,0.57-0.89,1.06-1.46,1.46l-33.46,22.3C82.09,128.21,81.02,128.52,79.92,128.54z M85.49,88.73v23.87l17.84-11.93L85.49,88.73
		z"/>
</g>
</svg>
